<svg xmlns="http://www.w3.org/2000/svg" width="0" height="0">
  <clipPath id="clip" clipPathUnits="objectBoundingBox">
    <path d="M0.6154 0.1012C0.7947 0.0233 0.9767 0.2053 0.8988 0.3846L0.8859 0.4142C0.8622 0.4689 0.8622 0.5311 0.8859 0.5858L0.8988 0.6154C0.9767 0.7947 0.7947 0.9767 0.6154 0.8988L0.5858 0.8859C0.5311 0.8622 0.4689 0.8622 0.4142 0.8859L0.3846 0.8988C0.2053 0.9767 0.0233 0.7947 0.1012 0.6154L0.1141 0.5858C0.1378 0.5311 0.1378 0.4689 0.1141 0.4142L0.1012 0.3846C0.0233 0.2053 0.2053 0.0233 0.3846 0.1012L0.4142 0.1141C0.4689 0.1378 0.5311 0.1378 0.5858 0.1141L0.6154 0.1012Z" />
  </clipPath>
</svg>