<svg xmlns="http://www.w3.org/2000/svg" width="0" height="0">
  <clipPath id="clip" clipPathUnits="objectBoundingBox">
    <path d="M0.3314 0.0909C0.4253 0.0000 0.5747 0.0000 0.6686 0.0909C0.6973 0.1187 0.7325 0.1390 0.7711 0.1499C0.8970 0.1855 0.9717 0.3145 0.9397 0.4410C0.9299 0.4797 0.9299 0.5203 0.9397 0.5590C0.9717 0.6855 0.8970 0.8145 0.7711 0.8501C0.7325 0.8610 0.6973 0.8813 0.6686 0.9091C0.5747 1.0000 0.4253 1.0000 0.3314 0.9091C0.3027 0.8813 0.2675 0.8610 0.2289 0.8501C0.1030 0.8145 0.0283 0.6855 0.0603 0.5590C0.0701 0.5203 0.0701 0.4797 0.0603 0.4410C0.0283 0.3145 0.1030 0.1855 0.2289 0.1499C0.2675 0.1390 0.3027 0.1187 0.3314 0.0909Z" />
  </clipPath>
</svg>
