<svg xmlns="http://www.w3.org/2000/svg" width="0" height="0">
  <clipPath id="clip" clipPathUnits="objectBoundingBox">
    <path d="M0.7702 0.1213C0.8013 0.1234 0.8168 0.1245 0.8294 0.1300C0.8476 0.1379 0.8621 0.1524 0.8700 0.1706C0.8755 0.1832 0.8766 0.1987 0.8787 0.2298L0.8835 0.3008C0.8844 0.3134 0.8848 0.3197 0.8862 0.3257C0.8882 0.3344 0.8916 0.3427 0.8963 0.3502C0.8996 0.3554 0.9038 0.3602 0.9121 0.3696L0.9588 0.4232C0.9793 0.4467 0.9896 0.4585 0.9946 0.4713C1.0018 0.4897 1.0018 0.5103 0.9946 0.5287C0.9896 0.5415 0.9793 0.5533 0.9588 0.5768L0.9121 0.6303C0.9038 0.6399 0.8996 0.6446 0.8963 0.6498C0.8916 0.6573 0.8882 0.6656 0.8862 0.6743C0.8848 0.6803 0.8844 0.6866 0.8835 0.6992L0.8787 0.7702C0.8766 0.8013 0.8755 0.8168 0.8700 0.8294C0.8621 0.8476 0.8476 0.8621 0.8294 0.8700C0.8168 0.8755 0.8013 0.8766 0.7702 0.8787L0.6992 0.8835C0.6866 0.8844 0.6803 0.8848 0.6743 0.8862C0.6656 0.8882 0.6573 0.8916 0.6498 0.8963C0.6446 0.8996 0.6399 0.9038 0.6303 0.9121L0.5768 0.9588C0.5533 0.9793 0.5415 0.9896 0.5287 0.9946C0.5103 1.0018 0.4897 1.0018 0.4713 0.9946C0.4585 0.9896 0.4467 0.9793 0.4232 0.9588L0.3696 0.9121C0.3602 0.9038 0.3554 0.8996 0.3502 0.8963C0.3427 0.8916 0.3344 0.8882 0.3257 0.8862C0.3197 0.8848 0.3134 0.8844 0.3008 0.8835L0.2298 0.8787C0.1987 0.8766 0.1832 0.8755 0.1706 0.8700C0.1524 0.8621 0.1379 0.8476 0.1300 0.8294C0.1245 0.8168 0.1234 0.8013 0.1213 0.7702L0.1165 0.6992C0.1156 0.6866 0.1152 0.6803 0.1138 0.6743C0.1118 0.6656 0.1084 0.6573 0.1037 0.6498C0.1004 0.6446 0.0962 0.6399 0.0879 0.6303L0.0412 0.5768C0.0207 0.5533 0.0104 0.5415 0.0054 0.5287C-0.0018 0.5103 -0.0018 0.4897 0.0054 0.4713C0.0104 0.4585 0.0207 0.4467 0.0412 0.4232L0.0879 0.3696C0.0962 0.3602 0.1004 0.3554 0.1037 0.3502C0.1084 0.3427 0.1118 0.3344 0.1138 0.3257C0.1152 0.3197 0.1156 0.3134 0.1165 0.3008L0.1213 0.2298C0.1234 0.1987 0.1245 0.1832 0.1300 0.1706C0.1379 0.1524 0.1524 0.1379 0.1706 0.1300C0.1832 0.1245 0.1987 0.1234 0.2298 0.1213L0.3008 0.1165C0.3134 0.1156 0.3197 0.1152 0.3257 0.1138C0.3344 0.1118 0.3427 0.1084 0.3502 0.1037C0.3554 0.1004 0.3602 0.0962 0.3696 0.0879L0.4232 0.0412C0.4467 0.0207 0.4585 0.0104 0.4713 0.0054C0.4897 -0.0018 0.5103 -0.0018 0.5287 0.0054C0.5415 0.0104 0.5533 0.0207 0.5768 0.0412L0.6303 0.0879C0.6399 0.0962 0.6446 0.1004 0.6498 0.1037C0.6573 0.1084 0.6656 0.1118 0.6743 0.1138C0.6803 0.1152 0.6866 0.1156 0.6992 0.1165L0.7702 0.1213Z" />
  </clipPath>
</svg>
