<svg xmlns="http://www.w3.org/2000/svg" width="0" height="0">
  <clipPath id="clip" clipPathUnits="objectBoundingBox">
    <path d="M0.4272 0.0308C0.4289 0.0291 0.4297 0.0283 0.4304 0.0276C0.4695 -0.0092 0.5305 -0.0092 0.5696 0.0276C0.5703 0.0283 0.5711 0.0291 0.5728 0.0308C0.5738 0.0318 0.5743 0.0323 0.5748 0.0327C0.5998 0.0566 0.6353 0.0661 0.6688 0.0579C0.6695 0.0578 0.6702 0.0576 0.6715 0.0572C0.6738 0.0566 0.6750 0.0563 0.6760 0.0561C0.7282 0.0438 0.7810 0.0743 0.7964 0.1257C0.7967 0.1266 0.7970 0.1278 0.7977 0.1300C0.7981 0.1314 0.7983 0.1321 0.7984 0.1327C0.8082 0.1659 0.8341 0.1918 0.8673 0.2016C0.8679 0.2017 0.8686 0.2019 0.8700 0.2023C0.8722 0.2030 0.8734 0.2033 0.8743 0.2036C0.9257 0.2190 0.9562 0.2718 0.9439 0.3240C0.9437 0.3250 0.9434 0.3262 0.9428 0.3285C0.9424 0.3298 0.9422 0.3305 0.9421 0.3312C0.9339 0.3647 0.9434 0.4002 0.9673 0.4252C0.9677 0.4257 0.9682 0.4262 0.9692 0.4272C0.9709 0.4289 0.9717 0.4297 0.9724 0.4304C1.0092 0.4695 1.0092 0.5305 0.9724 0.5696C0.9717 0.5703 0.9709 0.5711 0.9692 0.5728C0.9682 0.5738 0.9677 0.5743 0.9673 0.5748C0.9434 0.5998 0.9339 0.6353 0.9421 0.6688C0.9422 0.6695 0.9424 0.6702 0.9428 0.6715C0.9434 0.6738 0.9437 0.6750 0.9439 0.6760C0.9562 0.7282 0.9257 0.7810 0.8743 0.7964C0.8734 0.7967 0.8722 0.7970 0.8700 0.7977C0.8686 0.7981 0.8679 0.7983 0.8673 0.7984C0.8341 0.8082 0.8082 0.8341 0.7984 0.8673C0.7983 0.8679 0.7981 0.8686 0.7977 0.8700C0.7970 0.8722 0.7967 0.8734 0.7964 0.8743C0.7810 0.9257 0.7282 0.9562 0.6760 0.9439C0.6750 0.9437 0.6738 0.9434 0.6715 0.9428C0.6702 0.9424 0.6695 0.9422 0.6688 0.9421C0.6353 0.9339 0.5998 0.9434 0.5748 0.9673C0.5743 0.9677 0.5738 0.9682 0.5728 0.9692C0.5711 0.9709 0.5703 0.9717 0.5696 0.9724C0.5305 1.0092 0.4695 1.0092 0.4304 0.9724C0.4297 0.9717 0.4289 0.9709 0.4272 0.9692C0.4262 0.9682 0.4257 0.9677 0.4252 0.9673C0.4002 0.9434 0.3647 0.9339 0.3312 0.9421C0.3305 0.9422 0.3298 0.9424 0.3285 0.9428C0.3262 0.9434 0.3250 0.9437 0.3240 0.9439C0.2718 0.9562 0.2190 0.9257 0.2036 0.8743C0.2033 0.8734 0.2030 0.8722 0.2023 0.8700C0.2019 0.8686 0.2017 0.8679 0.2016 0.8673C0.1918 0.8341 0.1659 0.8082 0.1327 0.7984C0.1321 0.7983 0.1314 0.7981 0.1300 0.7977C0.1278 0.7970 0.1266 0.7967 0.1257 0.7964C0.0743 0.7810 0.0438 0.7282 0.0561 0.6760C0.0563 0.6750 0.0566 0.6738 0.0572 0.6715C0.0576 0.6702 0.0578 0.6695 0.0579 0.6688C0.0661 0.6353 0.0566 0.5998 0.0327 0.5748C0.0323 0.5743 0.0318 0.5738 0.0308 0.5728C0.0291 0.5711 0.0283 0.5703 0.0276 0.5696C-0.0092 0.5305 -0.0092 0.4695 0.0276 0.4304C0.0283 0.4297 0.0291 0.4289 0.0308 0.4272C0.0318 0.4262 0.0323 0.4257 0.0327 0.4252C0.0566 0.4002 0.0661 0.3647 0.0579 0.3312C0.0578 0.3305 0.0576 0.3298 0.0572 0.3285C0.0566 0.3262 0.0563 0.3250 0.0561 0.3240C0.0438 0.2718 0.0743 0.2190 0.1257 0.2036C0.1266 0.2033 0.1278 0.2030 0.1300 0.2023C0.1314 0.2019 0.1321 0.2017 0.1327 0.2016C0.1659 0.1918 0.1918 0.1659 0.2016 0.1327C0.2017 0.1321 0.2019 0.1314 0.2023 0.1300C0.2030 0.1278 0.2033 0.1266 0.2036 0.1257C0.2190 0.0743 0.2718 0.0438 0.3240 0.0561C0.3250 0.0563 0.3262 0.0566 0.3285 0.0572C0.3298 0.0576 0.3305 0.0578 0.3312 0.0579C0.3647 0.0661 0.4002 0.0566 0.4252 0.0327C0.4257 0.0323 0.4262 0.0318 0.4272 0.0308Z" />
  </clipPath>
</svg>
